# xmcd
#
# Track frame offsets: 
#        150
#        13506
#        26915
#        40769
#        54574
#        69569
#        84861
#        98664
#        113555
#        127022
#        140290
#        153851
#        167285
#        182112
#        194456
#        208174
#        221189
#        235614
#        249699
#        264513
#        279388
#        292788
#
# Disc length: 4074 seconds
#
# Revision: 0
# Processed by: cddbd v1.5.2PL0 Copyright (c) Steve Scherf et al.
# Submitted via: ExactAudioCopyFreeDBPlugin 1.0
#
DISCID=300fe816
DTITLE=Blind Alfred Reed - Appalachian Visionary
DYEAR=2016
DGENRE=Country
TTITLE0=The Wreck of the Virginian
TTITLE1=I Mean to Live for Jesus
TTITLE2=You Must Unload
TTITLE3=Walking In The Way With Jesus
TTITLE4=Explosion In The Fairmount Mines
TTITLE5=Fate Of Chris Lively And Wife
TTITLE6=Why Do You Bob Your Hair, Girls
TTITLE7=Always Lift Him Up And Never Knock Him Down
TTITLE8=The Prayer Of The Drunkard’s Little Girl
TTITLE9=Sweet Bird
TTITLE10=I’m Goin’ To Walk The Streets Of Glory
TTITLE11=The Telephone Girl
TTITLE12=Woman’s Been After Man Ever Since
TTITLE13=Why Do You Bob Your Hair Girls-No. 2
TTITLE14=There’ll Be No Distinction There
TTITLE15=We’ve Got To Have ‘Em, That’s All
TTITLE16=Beware
TTITLE17=The Old-Fashioned Cottage
TTITLE18=How Can A Poor Man Stand Such Times And Live
TTITLE19=Black And Blue Blues
TTITLE20=You’ll Miss Me
TTITLE21=Money Cravin’ Folks
EXTD=
EXTT0=
EXTT1=
EXTT2=
EXTT3=
EXTT4=
EXTT5=
EXTT6=
EXTT7=
EXTT8=
EXTT9=
EXTT10=
EXTT11=
EXTT12=
EXTT13=
EXTT14=
EXTT15=
EXTT16=
EXTT17=
EXTT18=
EXTT19=
EXTT20=
EXTT21=
PLAYORDER=
